<?xml version="1.0" encoding="utf-8"?>
<!-- Generator: Adobe Illustrator 26.0.2, SVG Export Plug-In . SVG Version: 6.00 Build 0)  -->
<svg version="1.1" id="Capa_1" xmlns="http://www.w3.org/2000/svg" xmlns:xlink="http://www.w3.org/1999/xlink" x="0px" y="0px"
	 viewBox="0 0 503 599" style="enable-background:new 0 0 503 599;" xml:space="preserve">
<style type="text/css">
	.st0{fill:#725514;}
	.st1{fill:#FBBB10;}
	.st2{opacity:0.6;}
	.st3{fill:#D89A0F;}
	.st4{fill:#FFFFFF;}
	.st5{fill:#33230A;}
	.st6{fill:#A0752A;}
	.st7{fill:#4F3810;}
	.st8{fill:#8E681C;}
	.st9{fill:#FFCD5C;}
	.st10{fill:#4F3912;}
	.st11{fill:#936F2E;}
	.st12{opacity:0.38;}
	.st13{fill:#FFD685;}
	.st14{opacity:0;}
	.st15{fill:#430E6B;}
	.st16{fill:#D8D8D8;}
	.st17{fill:#D0E9F2;}
	.st18{fill:#9CC9DB;}
	.st19{fill:#F3F6F4;}
</style>
<path class="st0" d="M81.8,445.4L77,493l-11.9,53.6c0,0-4.6,16,26.3,23l14,5.1l13-3.7l0.3,17.3l4.4,5.6l8.5,3.6h84.3l10.6-4.1
	l3.8-5.2l0.2-13.3l6.1,3.1l8.1,0.3l30-11.8l6.4-6.2l2.8-10.3l-7.4-33.5l-5.9-34.3l-3.4-33L81.8,445.4z"/>
<path class="st1" d="M321.5,62.9l21.4,0.1l-27.1,35c6.7,17.3,10.1,35.6,10.1,54.2c0,11.5-2.1,21.6-4.6,32.4
	c19.4,31.3,29.8,67.4,30,104.3c0,103.2-78.6,186.9-175.6,186.9S0,392.2,0,288.9c-0.1-36.4,10-72.2,29.2-103.1
	c-6.9-30.2-4.3-61.8,7.4-90.4L11.5,63l21.3-0.1L22.2,46.4L68.4,47c0,0,41.1-48.8,120-44.9c0,0,52.6,2.7,93.7,44.3l49.7,0.7
	L321.5,62.9z"/>
<path class="st0" d="M50.1,417.5c0,0,28.6-36.2,26.8-82.3c-1.7-44.6-28.1-62.3-44.5-112.6c-3.5-11-4.8-22.6-3.6-34.1
	C28.8,188.5-44.3,307.8,50.1,417.5z"/>
<path class="st0" d="M303.8,417.5c0,0-28.6-36.2-26.8-82.3c1.7-44.6,28.1-62.3,44.5-112.6c3.5-11,4.8-22.6,3.6-34.1
	C325.1,188.5,400.9,307.9,303.8,417.5z"/>
<g class="st2">
	<path class="st3" d="M303.4,140.1c0,43.2-33.8,78.3-75.6,78.3s-75.6-35.1-75.6-78.3c44.1,11.6,49.5-30.7,67.8-73.6
		C261.8,66.5,303.4,96.9,303.4,140.1z"/>
</g>
<g class="st2">
	<path class="st3" d="M56.3,140.1c0,43.2,33.8,78.3,75.6,78.3s75.6-35.1,75.6-78.3c-44.1,11.6-50.7-26.9-69-69.8
		C96.7,70.3,56.3,96.9,56.3,140.1z"/>
</g>
<path class="st4" d="M297.5,136.7c0,39.8-31.7,72.1-70.8,72.1c-8.8,0-17.5-1.6-25.6-4.9c2.9-3.8,5.3-8.1,7.1-12.6l-29.5-21.7
	l-29.5,21.7c1.8,4.5,4.1,8.7,7.1,12.6c-8.2,3.2-16.8,4.9-25.6,4.9c-39.1,0-70.8-32.3-70.8-72.1c0-38.2,29-66.1,65.9-68.5
	c25.5,11.3,45.4,30.8,52.9,56.4c7.5-25.6,28.5-45.2,54-56.4C269.6,70.6,297.5,98.4,297.5,136.7z"/>
<polygon class="st0" points="149.2,191.3 178.7,169.6 208.1,191.3 194.6,213.3 179.1,227.9 161.6,211.6 "/>
<path class="st0" d="M34.3,62.4L23.7,45.8l99.4,1.7l17.4,7.9l12.7,11.5c0,0,6.9,6.2,18.7,41.3c0,0-27.9-45.2-74.5-45.9L34.3,62.4z"
	/>
<path class="st0" d="M185.6,108.1l12.2-32.3c0,0,11.8-27.2,45.5-28.1l90-1.3L323,62.4l-62.3-0.3C260.7,62.1,216.9,60.7,185.6,108.1z
	"/>
<polygon class="st5" points="174.6,475.3 174.6,493 142.2,471.6 "/>
<polygon class="st5" points="174.6,493 205.8,473.1 180.4,476.2 174.6,475.3 "/>
<path class="st6" d="M135.6,470l-8.4,13l1.8,6.1l3.5,2.3l0.2,9.5l3.8,4.8l7.7,1.7l1.3,9.6l6.4,0.2c0,0,17.5-2.3,22.7-24.1l3.4,12.9
	c0,0,10.7,14.9,25.1,11.9c0,0,2.9,0.1,1.3-10.4c0,0,8.1,1.9,10.3-3.6s-0.6-11.2-0.6-11.2s9.1,0.3,6.1-10.3l-7.7-10.7l-8.9,1.9
	L175,491.9l-2.4-0.4l-32.5-20.3L135.6,470z"/>
<path class="st7" d="M296.9,406.6c0,0,32-10.1,23.5-46.5l4.4,10.6v17.6l-8.8,14.4l-12.1,14.7L296.9,406.6z"/>
<path class="st7" d="M324.8,368.3c9.1-8.6,14.5-20.4,15-32.9c0.6-13.9-2-22.6-2-22.6l5.8,13.4L346,337l-7.2,26l-14.1,25.4
	L324.8,368.3z"/>
<path class="st7" d="M339.1,316c0,0,7.7-11.4,5.1-32.5c-1.6-13.2-3.2-17.7-3.2-17.7s7,3.5,10.5,19.5l1.1,7.9l-2,23.6l-5,18.9
	l-3.3-14.8L339.1,316z"/>
<path class="st7" d="M344.3,268.8c0,0-0.6-43.8-18.4-74c-0.4-2.8,1.1-3.6-1.1-8.5l9.1,16.2l11.9,32.6l5.2,27.1l2,21.4l-4.6-9.7
	L344.3,268.8z"/>
<path class="st8" d="M301.2,414.4c-4.1-9.1-7.2-18.7-9.4-28.5c-6.2-29.5-5.9-46.6-3.1-62.5c4.8-27.3,24.2-49.9,32.5-82.2
	c6.2-24.1,3.5-34.2,3.5-34.2l-5.8,22.3l-16,35.1l-14.3,26.5C288.7,290.8,255.2,346,301.2,414.4z"/>
<path class="st7" d="M57,407.3c0,0-29.3-16.5-22.9-47L29.7,371v17.6l8.8,14.4l12.1,14.7L57,407.3z"/>
<path class="st7" d="M31.1,365.4c0,0-12.5-11.2-13.2-32.3C17.3,316,21.8,308,21.8,308l-7.2,9.3l-6.1,19.9l7.2,26l12.1,22.9
	L31.1,365.4z"/>
<path class="st7" d="M14.6,317.3c0,0-7.4-13-6.1-27.3c0.8-8.1,2.4-16.2,5.1-23.9c0,0-7,3.5-10.5,19.5l-1.1,7.9l2,23.6l5,18.9
	L14.6,317.3z"/>
<path class="st7" d="M11.7,267c0,0-0.1-31.3,17.7-61.6c0.3-8-2.2-11.9,0-16.8l-9.1,16.2L8.4,237.5l-5.2,27.1l-2,21.3l4.6-9.7
	L11.7,267z"/>
<path class="st8" d="M53.3,414.6c4.1-9.1,7.2-18.7,9.4-28.5c6.2-29.5,5.9-46.6,3.1-62.5c-4.7-27.3-24.2-49.9-32.5-82.3
	c-6.2-24.1-3.5-34.2-3.5-34.2l5.8,22.3l16,35.1L65.9,291C65.9,291,99.3,346.2,53.3,414.6z"/>
<g class="st2">
	<path class="st3" d="M27.8,197c0,0,15,40.3,62.3,56.2c0,0-63.4-34.8-63.4-101.4l1.2,19.7l2.7,15.6L27.8,197z"/>
</g>
<g class="st2">
	<path class="st3" d="M57,407.3c0,0,39,49.7,113.2,50c89.6,0.4,126.6-50.7,126.6-50.7l6.6,11.5c0,0-49.3,60.9-136,56.4
		c-75-4.2-117.4-57-117.4-57L57,407.3z"/>
</g>
<path class="st9" d="M213.9,23.5c3,0.2,5.9,0.8,8.7,1.9c1.2,0.4,2.4,0.9,3.6,1.4c2.1,1.1,4,2.6,5.5,4.4c0.4,0.4,0.6,0.9,0.8,1.5
	c0.1,0.6,0,1.1-0.5,1.5c-0.3,0.2-0.6,0.3-0.9,0.3c-3,0.4-6-0.8-9-0.3c-1.4,0.2-3,0.8-4.3,0.1c-0.7-0.4-1.3-0.9-1.7-1.6
	c-1.6-2.1-3.2-4.5-5.6-5.6c-0.5-0.2-1-0.4-1.4-0.7c-0.4-0.4-0.7-1.2,1-2.3C211.3,23.7,212.6,23.5,213.9,23.5z"/>
<path class="st10" d="M30.9,57.1h63.5c21.9,0,42.8,9,57.8,24.8l15,19.8c0,0-31-42.4-81.9-39.6l-51.1,0.3L30.9,57.1z"/>
<path class="st10" d="M327.1,57.1h-63.5c-21.9,0-42.8,9-57.8,24.8l-15.6,19.8c0,0,31.6-42.4,82.4-39.6l51.1,0.3L327.1,57.1z"/>
<path class="st8" d="M78.9,564.6l22.6,2.9c8.2,1.1,16.1-3.7,18.9-11.5l10.5-32.2l-3.1,30.2l-5.7,13.2l-8.7,6.5h-10.8L78.9,564.6z"/>
<path class="st8" d="M269,567.8l-22.6,2.9c-8.2,1.1-16.1-3.7-18.9-11.5L217,527l5,29.8l3.8,13.7l8.7,6.5h10.8L269,567.8z"/>
<path class="st7" d="M125.7,559.7c0,0-4.1,23.8-0.2,28.5c6.5,8,44.9,8,44.9,8l-38.8,1.3l-10.3-5l-2.9-7V571L125.7,559.7z"/>
<path class="st7" d="M223.6,563.8c0,0,4.1,21.2,0.2,25.4c-6.5,7.1-44.9,7.1-44.9,7.1l38.8,1.2l10.3-4.4l2.9-6.2v-12.9L223.6,563.8z"
	/>
<path class="st7" d="M80.7,457c0,0,6.8,5.9,24.2,12.2c8.5,3,17.2,5.5,26,7.5l5.6-7l-36.7-12.1l-18.2-11.6L80.7,457z"/>
<path class="st7" d="M268.4,458.7c-7.8,4.5-15.9,8.5-24.2,11.8c-10.3,4.2-26,7.9-26,7.9l-5.6-7l36.7-12.2l18.2-11.6L268.4,458.7z"/>
<path class="st8" d="M78.2,529.3c-1.2,2.2-2.3,4.4-3.2,6.7c-0.9,3-1.4,6.2-1.6,9.4c-0.2,1.8-0.1,4,1.5,4.9s3.9-0.7,4.5-2.5
	s0.2-3.9,0.2-5.8c0-4.1,1.8-8,3.1-11.9c0.8-2.3,5.4-18.5,2-18.5S79.5,526.9,78.2,529.3z"/>
<path class="st8" d="M94.8,510.7c-0.3,6.4-2.2,12.5-3.5,18.8c-0.2,1.3-0.7,2.5-1.5,3.4c-0.9,1-2.4,1-3.4,0.2
	c-0.8-0.8-0.6-2.2-0.2-3.3s0.8-2,1.2-3.1c0.6-1.5,1.2-3.1,1.7-4.6c0.9-3,1.6-6,2.2-9c0.3-1.7,0.6-4.2,1.8-4.5
	C94.8,508.3,94.9,510.2,94.8,510.7z"/>
<g class="st2">
	<path class="st3" d="M326,197c0,0-15,40.3-62.3,56.2c0,0,63.4-34.8,63.4-101.4l-1.2,19.7l-2.7,15.6L326,197z"/>
</g>
<path class="st9" d="M85.1,46.5c0,0,32.3-32.5,83.7-34.1c60.9-2,101.3,34.1,101.3,34.1h14.1c0,0-46.8-51-117.3-44.6
	c0,0-60.3,1-95.5,45.1L85.1,46.5z"/>
<path class="st11" d="M178.6,176.8v44.8c-5-4.7-9.7-9.7-14-15.1c-3.2-4.1-6.1-8.5-8.6-13.1L178.6,176.8z"/>
<path class="st7" d="M125.9,474.2c0,0-6.9,14.1,5.3,17.3l-3-11.9l5.1-4.4L125.9,474.2z"/>
<path class="st7" d="M222.8,475.9c0,0,5.8,9.3-2.6,15c1.9-7.2-1.9-14.1-1.9-14.1L222.8,475.9z"/>
<g class="st2">
	<path class="st3" d="M54,271.3c6.5-5.8,15.1-8.8,23.6-10c-7.2,2.9-14,7.2-18.7,13.3c-0.1,0.2-0.2,0.3-0.3,0.5L54,271.3z"/>
</g>
<g class="st2">
	<path class="st3" d="M294.9,276.6c-4-5.6-10-9.7-16.2-12.6c-0.9-0.4-1.9-0.8-2.9-1.2c2.1,0.3,4.1,0.7,6.1,1.2
		c6.3,1.7,12.6,4.4,17.5,8.8L294.9,276.6L294.9,276.6z"/>
</g>
<g class="st12">
	<path class="st4" d="M18.5,68.2h62.4c0,0,39.9-0.6,60.8,14.8c28.8,21.1,36.9,41.7,36.9,41.7s12.8-25,32.9-38
		c29.9-19.4,61.7-18.4,61.7-18.4h66.6l4-5.2l-87.1-0.8c0,0-51.9,1.5-77.4,59.5c0,0-8-15.8-12.1-20.1
		c-22.5-23.5-28.1-44.6-130.9-39.1l-24.7-0.4L18.5,68.2z"/>
</g>
<path class="st13" d="M267,353.2c0,51.9-29,89.8-90,89.8c-59.2,0-90-37.9-90-89.8s24-94,90-93.9C245.2,259.5,267,301.4,267,353.2z"
	/>
<path d="M178.7,126.2c-0.6,0-1.2-0.4-1.4-1l-1.1-2.9c-15.2-37-44.1-49.2-44.5-49.2h-0.1c-12.4-6.2-26-9.4-39.9-9.3l-35.3,0.2l0,0
	c-0.8,0-1.5-0.7-1.5-1.5s0.7-1.5,1.5-1.5l0,0l35.3-0.2c14.3,0,28.4,3.3,41.2,9.6c1.2,0.5,19.3,8.5,34.5,30l-7-17.7
	c-7.3-19.8-26-33.1-47.2-33.6l-86.8-1.7l9.1,14.2c0.5,0.7,0.3,1.6-0.3,2.1c-0.7,0.5-1.6,0.3-2.1-0.3c0,0-0.1-0.1-0.1-0.1L22.4,46.6
	c-0.3-0.5-0.3-1.1,0-1.5c0.3-0.5,0.8-0.8,1.3-0.8l89.6,1.6c22.3,0.5,42.1,14.6,49.9,35.5l15.7,39.7c0.4,1,0.8,1.9,1.2,2.9
	c0.3,0.8-0.1,1.6-0.9,1.9C179.1,126.1,178.9,126.2,178.7,126.2z"/>
<polygon points="36.9,95.8 36.9,95.8 39.1,93.8 "/>
<path d="M177.1,476.8C79.4,476.8,0,392.3,0,288.4c-0.1-36.5,9.9-72.3,29-103.4c-6.7-30-4.2-61.4,7.3-90L11.8,63.4
	c-0.5-0.6-0.4-1.6,0.3-2.1c0.3-0.2,0.6-0.3,0.9-0.3l43.4-0.2l0,0c0.8,0,1.5,0.7,1.5,1.5s-0.7,1.5-1.5,1.5L16,64l23.2,29.9
	c0.3,0.4,0.4,1,0.2,1.5c-11.6,28.4-14.1,59.7-7.3,89.5c0.1,0.4,0,0.8-0.2,1.1c-19,30.7-29,66.2-28.9,102.3
	c0,102.2,78.1,185.4,174.1,185.4s174.1-83.2,174.1-185.4c0.1-36.2-9.9-71.6-28.9-102.4c-0.2-0.3-0.3-0.7-0.2-1.1
	c2.5-10.9,3.7-22,3.7-33.2c0-18.3-3.4-36.5-10-53.6c-0.2-0.5-0.1-1,0.2-1.5L341.3,64l-43.5-0.2c-0.8,0-1.5-0.7-1.5-1.5
	s0.7-1.5,1.5-1.5l0,0l46.6,0.2c0.8,0,1.5,0.7,1.5,1.5c0,0.3-0.1,0.7-0.3,0.9l-26.6,34.3c6.6,17.2,9.9,35.5,9.9,53.9
	c0,11.2-1.2,22.4-3.6,33.3c19.1,31.1,29.1,66.9,29,103.4C354.2,392.3,274.7,476.8,177.1,476.8z"/>
<path d="M284.3,48c-0.4,0-0.8-0.2-1.1-0.4c-57.6-58.6-151.8-59.5-210.4-1.9c-0.6,0.6-1.2,1.2-1.8,1.8c-0.6,0.6-1.5,0.7-2.1,0.1
	c-0.6-0.6-0.7-1.5-0.1-2.1c0,0,0,0,0.1-0.1c58.8-59.8,154.8-60.6,214.6-1.9c0.6,0.6,1.2,1.2,1.9,1.9c0.6,0.5,0.7,1.5,0.1,2.1
	C285.2,47.8,284.7,48,284.3,48z"/>
<path d="M178.7,126.2c-0.2,0-0.4,0-0.5-0.1c-0.8-0.3-1.2-1.2-0.9-1.9c0.3-0.7,0.6-1.4,0.8-2.1l16-40.6c7.8-20.9,27.6-35,49.9-35.5
	l89.6-1.6c0.6,0,1.1,0.3,1.3,0.8c0.3,0.5,0.3,1.1,0,1.5l-10.6,16.5c-0.5,0.7-1.4,0.8-2.1,0.3c-0.6-0.4-0.8-1.3-0.4-2l9.1-14.2
	l-86.8,1.5C223,49.4,204.3,62.7,197,82.5l-7.1,18c15.3-21.6,33.4-29.7,34.6-30.3c12.8-6.4,26.9-9.7,41.2-9.6l32.1,0.2
	c0.8,0,1.5,0.7,1.5,1.5s-0.7,1.5-1.5,1.5l0,0l-32.1-0.2h-0.4c-13.7,0-27.2,3.2-39.5,9.3h-0.1c-0.3,0.1-29.5,12.6-44.8,50.1l-0.8,2.1
	C179.9,125.8,179.3,126.2,178.7,126.2z"/>
<path d="M50.1,419c-0.3,0-0.7-0.1-0.9-0.3c-0.7-0.5-0.8-1.4-0.3-2.1c0,0,0,0,0,0c0.3-0.4,28.2-36.4,26.5-81.3
	c-1-25.7-10.3-42.5-21.2-61.9C46.6,259.6,37.9,244.1,31,223c-3.6-11.2-4.9-23-3.6-34.7c0.1-0.8,0.9-1.4,1.7-1.3s1.4,0.9,1.3,1.7
	c-1.1,11.3,0.1,22.6,3.6,33.4c6.8,20.8,15.4,36.2,23,49.8c11,19.7,20.6,36.8,21.6,63.2c1.7,46-26.9,82.9-27.2,83.2
	C51,418.8,50.6,419,50.1,419z"/>
<path d="M303.8,419c-0.5,0-0.9-0.2-1.2-0.6c-0.3-0.4-28.9-37.2-27.1-83.2c1-26.5,10.5-43.5,21.6-63.2c7.6-13.6,16.2-29,23-49.8
	c3.4-10.8,4.7-22.1,3.5-33.4c-0.1-0.8,0.4-1.6,1.3-1.7c0,0,0,0,0,0c0.8-0.1,1.6,0.5,1.7,1.3c1.2,11.7,0,23.5-3.7,34.7
	c-6.9,21-15.6,36.6-23.2,50.3c-10.9,19.4-20.2,36.2-21.2,61.9c-1.7,44.9,26.2,80.9,26.5,81.3c0.5,0.6,0.4,1.6-0.2,2.1
	C304.5,418.8,304.2,419,303.8,419z"/>
<path class="st0" d="M178.6,229.6c-0.3,0-0.7-0.1-0.9-0.3c-0.5-0.4-13.2-10.5-22.2-23.5c-3-4.1-5.4-8.6-7.1-13.4
	c-0.2-0.6,0-1.3,0.5-1.7l28.8-22.4c0.5-0.4,1.3-0.4,1.8,0l28.8,22.4c0.5,0.4,0.7,1.1,0.5,1.7c-1.8,4.8-4.1,9.3-7.1,13.4
	c-9,13-21.7,23.1-22.2,23.5C179.3,229.5,178.9,229.6,178.6,229.6z M151.6,192.4c1.6,4.1,3.8,8,6.3,11.6
	c7.4,10.6,17.6,19.5,20.7,22.1c3.1-2.6,13.3-11.5,20.7-22.1c2.6-3.6,4.7-7.5,6.4-11.6l-27-21L151.6,192.4z"/>
<path d="M1.6,296L1.6,296c-0.8,0-1.5-0.7-1.5-1.5c0-0.8,0.6-20.8,12.2-29.8c0.6-0.6,1.6-0.5,2.1,0.1c0.6,0.6,0.5,1.6-0.1,2.1
	c-0.1,0-0.1,0.1-0.2,0.1c-10.5,8.2-11.1,27.3-11.1,27.5C3.1,295.4,2.4,296,1.6,296z"/>
<path d="M9,344.2c-0.7,0-1.4-0.5-1.5-1.3c-1.4-13.6,3.6-27.1,13.5-36.5c0.5-0.7,1.4-0.8,2.1-0.3c0.7,0.5,0.8,1.4,0.3,2.1
	c-0.1,0.1-0.2,0.3-0.4,0.4C7.8,323,10.5,342.2,10.5,342.4c0.1,0.8-0.4,1.6-1.3,1.7L9,344.2z"/>
<path d="M30.2,392.4c-0.7,0-1.3-0.5-1.4-1.1c-0.2-0.8-5.2-20.3,4.4-32.5c0.5-0.6,1.5-0.7,2.1-0.2c0.6,0.5,0.7,1.4,0.2,2
	c-8.7,11-3.9,29.7-3.8,29.9c0.2,0.8-0.3,1.6-1,1.8c0,0,0,0,0,0C30.5,392.3,30.4,392.4,30.2,392.4z"/>
<path d="M352.7,296c-0.8,0-1.5-0.7-1.5-1.5c0-0.2-0.6-19.3-11.1-27.5c-0.7-0.5-0.9-1.4-0.4-2.1s1.4-0.9,2.1-0.4
	c0.1,0,0.1,0.1,0.1,0.1c11.7,9,12.2,29,12.3,29.8C354.2,295.3,353.5,296,352.7,296C352.7,296,352.7,296,352.7,296L352.7,296z"/>
<path d="M345.2,344.1H345c-0.8-0.1-1.4-0.9-1.3-1.7c0-0.2,2.7-19.5-12.5-33.9c-0.6-0.5-0.7-1.5-0.2-2.1c0.5-0.6,1.5-0.7,2.1-0.2
	c0.1,0,0.1,0.1,0.2,0.1c9.9,9.4,14.9,22.9,13.4,36.5C346.6,343.5,346,344.1,345.2,344.1z"/>
<path d="M324,392.3c-0.1,0-0.3,0-0.4,0c-0.8-0.2-1.3-1-1.1-1.8c0-0.2,4.9-18.8-3.8-29.9c-0.6-0.6-0.5-1.6,0.1-2.1
	c0.6-0.6,1.6-0.5,2.1,0.1c0.1,0.1,0.1,0.1,0.1,0.2c9.6,12.2,4.6,31.7,4.4,32.5C325.3,391.8,324.7,392.3,324,392.3z"/>
<path d="M107.5,576.2c-2.5,0-4.9-0.5-7.2-1.4L75.8,565c-9.1-3.7-14-13.5-11.6-23c14-54.4,16.1-96.3,16.1-96.7c0-0.8,0.7-1.5,1.6-1.4
	s1.5,0.7,1.4,1.6c0,0.4-2.1,42.6-16.2,97.3c-2.1,8,2.1,16.3,9.8,19.5l24.5,9.8c8.5,3.4,18.1-0.8,21.4-9.2c0.2-0.6,0.4-1.1,0.6-1.7
	c3.4-12.6,5.9-25.5,7.5-38.5c0.1-0.8,0.9-1.4,1.7-1.3c0.8,0.1,1.4,0.9,1.3,1.7c-1.7,13.1-4.2,26.1-7.6,38.8
	C124,570.3,116.3,576.2,107.5,576.2L107.5,576.2z"/>
<path d="M241.4,580.1c-8.8,0-16.5-5.9-18.8-14.3c-3.4-12.8-5.9-25.7-7.6-38.8c-0.1-0.8,0.5-1.6,1.3-1.7s1.6,0.5,1.7,1.3
	c1.6,13,4.2,25.8,7.5,38.5c2.4,8.8,11.5,13.9,20.3,11.5c0.6-0.2,1.2-0.4,1.7-0.6l24.5-9.8c7.7-3.1,11.9-11.4,9.8-19.4
	c-14.1-54.7-16.2-96.9-16.2-97.3c0-0.8,0.6-1.5,1.4-1.6s1.5,0.6,1.6,1.4c0,0.4,2.1,42.4,16.1,96.7c2.5,9.5-2.5,19.3-11.6,23
	l-24.5,9.8C246.4,579.7,243.9,580.1,241.4,580.1z"/>
<path d="M212.9,599H136c-10.7,0-19.1-5.5-19.1-12.5V571c0-0.8,0.7-1.5,1.5-1.5s1.5,0.7,1.5,1.5v15.4c0,5.2,7.4,9.5,16.1,9.5h77
	c8.7,0,16.1-4.4,16.1-9.5v-11.6c0-0.8,0.7-1.5,1.5-1.5s1.5,0.7,1.5,1.5v11.6C232,593.5,223.6,599,212.9,599z"/>
<g class="st14">
	<path d="M177.1,444.5c-56.4,0-91.5-35-91.5-91.3c0-30.9,8.6-55.9,24.9-72.1c15.6-15.5,38-23.3,66.6-23.3
		c32.2,0.1,56.4,9.5,71.7,28.1c13.1,15.9,19.8,38.6,19.8,67.3C268.5,410.4,234.4,444.5,177.1,444.5z M176.8,260.8
		c-27.6,0-49.2,7.5-64.1,22.4c-15.7,15.7-24,39.9-24,70c0,54.5,33.9,88.3,88.5,88.3c55.4,0,88.5-33,88.5-88.3
		c0-61.2-29.8-92.3-88.5-92.4L176.8,260.8z"/>
</g>
<path class="st15" d="M122.7,306.8c-4.7,75.1,56.4,110.6,56.4,110.6c-4.4,0.4-8.9,0.3-13.3-0.5c-4-0.8-7.9-1.8-11.8-3.1
	c-43.3-29.1-43.9-82.8-43.9-82.8C112.5,322.1,116.8,313.8,122.7,306.8z"/>
<path class="st15" d="M236.7,347.4c-8,59.9-52,69.4-52,69.4s-7.9-4.9-11.5-10.3c0,0,19.6-4.4,33.6-21.4c10.2-12.4,12.1-28,12.1-28
	c-16.5-6.1-34.6-6.5-51.4-1.2c0,0-1.8,2.4-0.7,9.9c0,0-8.6-6.5-10.6-22.3c0,0,12.2-7.8,40.5-6.3
	C225.3,338.7,236.7,347.4,236.7,347.4z"/>
<path d="M174.2,494.3c-0.3,0-0.6-0.1-0.8-0.2l-32-21.2c-0.7-0.5-0.8-1.4-0.3-2.1c0.5-0.6,1.3-0.8,1.9-0.4l29.6,19.7v-14.8
	c0-0.8,0.7-1.5,1.5-1.5s1.5,0.7,1.5,1.5v17.6c0,0.6-0.3,1.1-0.8,1.3C174.7,494.3,174.4,494.3,174.2,494.3z"/>
<path d="M174.2,494.3c-0.3,0-0.5-0.1-0.7-0.2c-0.5-0.3-0.8-0.8-0.8-1.3v-16.6c0-0.8,0.7-1.5,1.5-1.5s1.5,0.7,1.5,1.5l0,0v13.9
	l29.9-18.7c0.7-0.5,1.6-0.3,2.1,0.4s0.3,1.6-0.4,2.1c0,0-0.1,0.1-0.1,0.1L175,494.1C174.8,494.3,174.5,494.3,174.2,494.3z"/>
<path d="M147.2,519.3c-0.4,0-0.7-0.1-1-0.4c-0.1-0.1-8.6-7.8-0.2-21.1c2.9-4.5,5.5-8.2,14-15c0.6-0.5,1.6-0.5,2.1,0.2
	c0.5,0.6,0.5,1.6-0.2,2.1c0,0-0.1,0.1-0.1,0.1c-8.1,6.4-10.6,9.8-13.4,14.2c-6,9.5-2.1,15.3-0.8,16.8c23-1.8,24.8-22.7,24.9-23.5
	c0.1-0.8,0.8-1.5,1.6-1.4c0.8,0.1,1.5,0.8,1.4,1.6l0,0C175.6,493.2,173.5,517.7,147.2,519.3L147.2,519.3z"/>
<path d="M201.5,519.8L201.5,519.8c-26.4-1.6-28.4-26.1-28.4-26.4c-0.1-0.8,0.6-1.5,1.4-1.6c0.8-0.1,1.5,0.6,1.6,1.4
	c0.1,0.9,1.9,21.7,24.9,23.6c1.4-1.5,5.3-7.3-0.8-16.8c-2.8-4.4-5.2-7.8-13.4-14.2c-0.6-0.5-0.8-1.4-0.2-2.1c0,0,0,0,0,0
	c0.5-0.6,1.5-0.8,2.1-0.2c8.5,6.7,11.2,10.4,14,15c8.4,13.3-0.1,21-0.2,21.1C202.2,519.7,201.9,519.8,201.5,519.8z"/>
<path d="M141.2,508.1c-3.1,0-6-1.4-8.1-3.7c0,0,0-0.1-0.1-0.1c-8.8-13,12.9-29.5,13.8-30.2c0.6-0.5,1.6-0.5,2.1,0.1
	c0.5,0.6,0.5,1.6-0.1,2.1c-0.1,0-0.1,0.1-0.2,0.1c-0.2,0.1-20.3,15.4-13.2,26.1c2.1,2.2,5.3,3.1,8.2,2.1c0.8-0.3,1.6,0.2,1.9,0.9
	c0.3,0.8-0.2,1.6-0.9,1.9c0,0-0.1,0-0.1,0C143.4,508,142.3,508.1,141.2,508.1z"/>
<path d="M207.9,509.6c-1.2,0-2.4-0.2-3.5-0.5c-0.8-0.2-1.2-1.1-1-1.9c0.2-0.8,1.1-1.2,1.9-1c5.1,1.5,7.6-1.6,7.7-1.7
	c7.2-10.6-13-25.9-13.2-26.1c-0.7-0.5-0.8-1.4-0.3-2.1c0.5-0.7,1.4-0.8,2.1-0.3c0.9,0.7,22.6,17.2,13.8,30.2
	C213.5,508.4,210.7,509.7,207.9,509.6z"/>
<path d="M133.7,493.4c-0.1,0-0.2,0-0.3,0c-1.9-0.4-3.6-1.3-5-2.7c-7.4-8.5,6.5-20.9,7.1-21.5c0.6-0.6,1.6-0.5,2.1,0.1
	s0.5,1.6-0.1,2.1c-0.1,0.1-12.3,11-6.9,17.2l0,0c1,0.9,2.1,1.5,3.4,1.8c0.8,0.1,1.4,0.8,1.3,1.7
	C135.3,492.9,134.5,493.5,133.7,493.4L133.7,493.4z"/>
<path d="M215,494.5c-0.8,0.1-1.6-0.5-1.7-1.3c-0.1-0.8,0.5-1.6,1.3-1.7l0,0c1.3-0.3,2.5-0.9,3.4-1.8c5.4-6.2-6.4-17-6.5-17.2
	c-0.6-0.6-0.5-1.6,0.1-2.1c0.5-0.5,1.3-0.5,1.9-0.1c0.6,0.5,14.1,12.9,6.8,21.4c-1.4,1.4-3.1,2.3-5,2.7
	C215.2,494.5,215.1,494.5,215,494.5z"/>
<path d="M148.8,510.6c1.4,0.9,1.9,2.8,1,4.2c-0.2,0.3-0.4,0.5-0.6,0.7c-0.3,0.3-0.6,0.6-0.9,0.9c-1.5,1.8-2,4.2-1.3,7.3
	c-1.1-0.8-2-1.8-2.6-3c-1.5-2.9-1.4-6.3,0.1-9.1c0.8-1.5,2.6-2,4.1-1.2C148.7,510.5,148.7,510.5,148.8,510.6L148.8,510.6z"/>
<path d="M137.6,498.4c1.4,0.9,1.9,2.8,1,4.2c-0.2,0.3-0.4,0.5-0.6,0.7c-0.3,0.3-0.6,0.6-0.9,0.9c-1.5,1.8-2,4.1-1.3,7.3
	c-1.1-0.8-2-1.8-2.6-3c-1.5-2.9-1.4-6.3,0.1-9.1c0.8-1.5,2.6-2,4.1-1.2C137.4,498.3,137.5,498.3,137.6,498.4L137.6,498.4z"/>
<path d="M130.5,484.4c1.1,0.7,1.4,2.1,0.8,3.2c-0.1,0.2-0.3,0.4-0.4,0.5c-0.2,0.2-0.5,0.5-0.7,0.7c-1.1,1.4-1.5,3.1-1,5.5
	c-0.8-0.6-1.5-1.3-1.9-2.2c-1.1-2.2-1.1-4.7,0.1-6.8c0.6-1.1,2-1.5,3.1-0.9C130.4,484.4,130.4,484.4,130.5,484.4L130.5,484.4z"/>
<path d="M200.4,510.1c-1.4,0.9-1.9,2.8-1,4.2c0.2,0.3,0.4,0.5,0.6,0.7c0.3,0.3,0.6,0.6,0.9,0.9c1.5,1.8,2,4.1,1.3,7.3
	c1.1-0.8,2-1.8,2.6-3c1.5-2.9,1.4-6.3-0.1-9.1c-0.8-1.5-2.6-2-4.1-1.2C200.5,510.1,200.4,510.1,200.4,510.1L200.4,510.1z"/>
<path d="M211.6,498c-1.4,0.9-1.9,2.8-1,4.2c0.2,0.3,0.4,0.5,0.6,0.7c0.3,0.3,0.6,0.6,0.9,0.9c1.5,1.8,2,4.1,1.3,7.3
	c1.1-0.8,2-1.8,2.6-3c1.5-2.9,1.4-6.3-0.1-9.1c-0.8-1.5-2.6-2-4.1-1.2C211.7,497.9,211.7,498,211.6,498L211.6,498z"/>
<path d="M218.7,484c-1.1,0.7-1.4,2.1-0.7,3.2c0.1,0.2,0.3,0.4,0.4,0.5c0.2,0.2,0.5,0.4,0.7,0.7c1.1,1.4,1.5,3.1,0.9,5.5
	c0.8-0.6,1.5-1.3,1.9-2.2c1.1-2.2,1.1-4.7-0.1-6.9c-0.6-1.1-2-1.5-3.1-0.9C218.8,483.9,218.7,484,218.7,484L218.7,484z"/>
<path class="st15" d="M126.2,302.9v14.2c0,0,23.1-14.8,49.4-14.6c23.7,0.1,37.5,5.8,48.2,13.2c2.1,5.9-0.9,13.5-0.9,13.5
	s6.4-2,9.6-7.5c2.1-3.9,3.4-8.3,3.8-12.7c0,0-14.8-21.9-59.4-22.6C144.1,285.9,126.2,302.9,126.2,302.9z"/>
<path class="st16" d="M147.3,153.7c-1.9,4.1-4.8,7.6-8.4,10.2c-6.1,4.4-14.6,5.2-20.9,4.5c-5.7-0.6-11-2.9-15.3-6.5
	c-5.6-4.7-7.4-11.4-7.9-14.7c-0.8-5.4,1.2-8,2.8-8.3c6.6-1.4,0.5,13.4,12.3,17.9c2.2,0.8,11.8,3.7,15.2,3.1
	c2.6-0.5,12.1-5.2,13.1-6.6c3.1-4.4,4.5-12.4,7.9-13.8c1.4-0.6,2.7-0.3,3.3,3.2C149.8,146,148.6,151.1,147.3,153.7z"/>
<path class="st16" d="M211.3,152.9c1.9,4.1,4.8,7.6,8.4,10.2c6.1,4.4,14.6,5.2,20.9,4.5c5.6-0.6,11-2.9,15.3-6.5
	c5.6-4.7,7.4-11.4,7.9-14.7c0.8-5.4-1.2-8-2.8-8.3c-6.6-1.4-0.5,13.4-12.3,17.9c-2.2,0.9-11.8,3.7-15.2,3.1
	c-2.6-0.5-12.1-5.2-13.1-6.6c-3.1-4.4-4.5-12.4-7.9-13.8c-1.4-0.6-2.7-0.3-3.3,3.2C208.8,145.2,210,150.3,211.3,152.9z"/>
<path d="M122,164.9c-14.9,0-26.9-12.1-26.9-26.9c0-1.7,1.3-3,3-3s3,1.3,3,3c0.3,11.6,9.8,20.7,21.4,20.5
	c11.2-0.2,20.2-9.3,20.5-20.5c0-1.7,1.3-3,3-3s3,1.3,3,3C148.9,152.9,136.9,164.9,122,164.9z"/>
<path d="M236.7,164.9c-14.9,0-26.9-12.1-26.9-26.9c0-1.7,1.3-3,3-3s3,1.3,3,3c0.3,11.6,9.8,20.7,21.4,20.5
	c11.2-0.2,20.2-9.3,20.5-20.5c0-1.7,1.3-3,3-3s3,1.3,3,3C263.6,152.9,251.5,164.9,236.7,164.9z"/>
<path d="M378.1,101.4H359c-1.7,0-3-1.4-3-3c0-0.8,0.3-1.6,0.9-2.2l13.6-12.7H359c-1.7,0-3-1.3-3-3s1.3-3,3-3h19.1
	c1.7,0,3,1.4,2.9,3.1c0,0.8-0.4,1.6-0.9,2.1l-13.6,12.7h11.6c1.7,0,3,1.3,3,3S379.8,101.4,378.1,101.4L378.1,101.4z"/>
<path d="M429.1,85.6h-31.6c-1.7,0-3-1.3-3-3c0-0.8,0.3-1.6,0.9-2.2L421.5,56h-24c-1.7,0-3-1.3-3-3s1.3-3,3-3h31.6c1.7,0,3,1.4,3,3
	c0,0.8-0.3,1.6-0.9,2.2l-26.1,24.4h24c1.7,0,3,1.3,3,3S430.7,85.6,429.1,85.6L429.1,85.6z"/>
<path d="M500,63.8h-48.1c-1.7,0-3-1.4-3-3c0-0.8,0.3-1.6,0.9-2.2l42.6-39.8h-40.5c-1.7,0-3-1.3-3-3s1.3-3,3-3H500c1.7,0,3,1.3,3,3
	c0,0.8-0.3,1.7-1,2.2l-42.6,39.8H500c1.7,0,3,1.3,3,3S501.7,63.8,500,63.8L500,63.8z"/>
<g>
	<g>
		<path class="st17" d="M155,204.3L115.3,275c-10.2,18.2,0.1,41.2,20.6,45.6l0,0c22.2,4.8,41.9-15.1,36.9-37.2L155,204.3z"/>
	</g>
	<g>
		<path class="st18" d="M144.7,296.2c3.1-3.7,5.6-7.8,8.6-11.6c1.3-1.7,2.7-3.3,4.5-4.3c1.8-1.1,4.1-1.5,6-0.6
			c1.7,0.8,2.8,2.5,3.6,4.2c2.4,5.6,1.2,12.4-2.2,17.5s-8.7,8.7-14.3,11.1c-3.5,1.5-7.3,2.5-10.9,1.6c-3.1-0.8-7.9-4.8-6-8.5
			c0.8-1.6,3.7-2.6,5.1-3.6C141.1,300.2,143,298.2,144.7,296.2z"/>
	</g>
	<g>
		<ellipse class="st19" cx="127.4" cy="280.2" rx="9.9" ry="9.9"/>
	</g>
	<g>
		<ellipse class="st19" cx="124.8" cy="299.1" rx="5.5" ry="5.5"/>
	</g>
</g>
</svg>
